Coordinates
version=1
nRows=24
nColumns=22
inDegrees=yes

Units are S.I. units (second, meters, Newtons, ...)
If the header above contains a line with 'inDegrees', this indicates whether rotational values are in degrees (yes) or radians (no).

endheader
time	pelvis_tilt	pelvis_list	pelvis_rotation	pelvis_tx	pelvis_ty	pelvis_tz	hip_flexion_r	hip_adduction_r	hip_rotation_r	knee_angle_r	ankle_angle_r	subtalar_angle_r	hip_flexion_l	hip_adduction_l	hip_rotation_l	knee_angle_l	ankle_angle_l	subtalar_angle_l	lumbar_extension	lumbar_bending	lumbar_rotation
      5.41000000	     -5.02597359	     -3.59601352	   -104.17736114	      0.78378349	      1.06935871	      0.52416309	      1.56925067	     12.09706573	    -21.32531158	     -9.85240932	      9.78073407	    -11.10644854	      8.14631667	     -9.26803455	      1.10386141	    -63.40889999	     -9.23966506	     10.73386030	     -5.63857289	      4.37750346	     -4.65696745
      5.42000000	     -4.98078714	     -3.60086131	   -105.14858466	      0.77953547	      1.06988887	      0.53020383	      0.86293731	     12.22429391	    -20.28588584	     -9.49355544	      9.85638465	    -11.08253398	      9.23569633	     -9.10365378	      1.52020438	    -63.66222661	     -8.05667993	      9.67313523	     -5.72290550	      4.19071929	     -4.26401931
      5.43000000	     -4.92620919	     -3.56954481	   -106.16553080	      0.77518388	      1.07034391	      0.53610759	      0.20017464	     12.33599187	    -19.19122610	     -9.14454959	      9.95822226	    -11.04330399	     10.31722478	     -8.96481060	      1.88507662	    -63.71064032	     -6.93127785	      8.77402164	     -5.77402262	      3.99384842	     -3.83509784
      5.44000000	     -4.85098759	     -3.55438669	   -107.19196626	      0.77088092	      1.07078100	      0.54187898	     -0.42825691	     12.38717746	    -18.11611554	     -8.87513326	     10.04083214	    -11.02050759	     11.34460787	     -8.80188600	      2.23618377	    -63.56294777	     -5.81000593	      7.70747531	     -5.84544256	      3.77607800	     -3.44891124
      5.45000000	     -4.77280173	     -3.52144682	   -108.26229972	      0.76652654	      1.07115485	      0.54752190	     -1.02435836	     12.42002528	    -16.99043252	     -8.63195541	     10.15130001	    -10.99169704	     12.33889585	     -8.66400466	      2.53852674	    -63.22447938	     -4.69123729	      6.77820431	     -5.89961178	      3.55961306	     -3.03335584
      5.46000000	     -4.69108076	     -3.46889227	   -109.37461450	      0.76214662	      1.07146289	      0.55302289	     -1.57808899	     12.43276273	    -15.80944647	     -8.42868756	     10.29269099	    -10.95378118	     13.30365583	     -8.54890264	      2.79597878	    -62.70525708	     -3.55997781	      5.99941629	     -5.93378553	      3.35043702	     -2.60093238
      5.47000000	     -4.59823450	     -3.43233005	   -110.49469273	      0.75781231	      1.07175178	      0.55838393	     -2.11189132	     12.40279456	    -14.63704319	     -8.27449609	     10.42711308	    -10.93213473	     14.21008564	     -8.42667463	      3.02954873	    -62.00962433	     -2.40214428	      5.10164570	     -5.98509927	      3.13089450	     -2.20287998
      5.48000000	     -4.50325133	     -3.40744185	   -111.61896436	      0.75353667	      1.07203062	      0.56361744	     -2.61493255	     12.33759469	    -13.49968592	     -8.18432501	     10.54835506	    -10.92373845	     15.05467701	     -8.30645877	      3.23886398	    -61.13560185	     -1.21970392	      4.13848004	     -6.05227846	      2.91434884	     -1.83390380
      5.49000000	     -4.40934849	     -3.36181722	   -112.76008427	      0.74925093	      1.07224477	      0.56876661	     -3.08554138	     12.26255431	    -12.34877173	     -8.11208039	     10.70322118	    -10.90683436	     15.86986927	     -8.20942490	      3.41274313	    -60.10557755	     -0.07977149	      3.27765209	     -6.08808028	      2.70979806	     -1.45303661
      5.50000000	     -4.31643425	     -3.30784656	   -113.90321651	      0.74500298	      1.07241947	      0.57381156	     -3.51980886	     12.17032621	    -11.19950451	     -8.08275363	     10.85915347	    -10.88604759	     16.64501260	     -8.12662329	      3.55305262	    -58.92181076	      0.97962700	      2.44467747	     -6.11639697	      2.51686051	     -1.08910167
      5.51000000	     -4.22685470	     -3.25014999	   -115.03958421	      0.74079028	      1.07255686	      0.57880583	     -3.92945314	     12.06385233	    -10.07680407	     -8.08647581	     11.02773039	    -10.86456944	     17.37203447	     -8.05299291	      3.66198110	    -57.59625995	      1.92744603	      1.60879757	     -6.13573237	      2.33464612	     -0.73499992
      5.52000000	     -4.13916440	     -3.18813327	   -116.16768034	      0.73663006	      1.07265715	      0.58375692	     -4.31038142	     11.94254618	     -8.97734655	     -8.12855390	     11.19273661	    -10.83848134	     18.05203696	     -7.98088756	      3.74060545	    -56.14210737	      2.74986050	      0.82033758	     -6.14564914	      2.16536665	     -0.40560888
      5.53000000	     -4.05680952	     -3.12597673	   -117.28011801	      0.73250506	      1.07271992	      0.58868743	     -4.67328478	     11.81193952	     -7.91057514	     -8.20137359	     11.37335847	    -10.80813074	     18.67877654	     -7.91520525	      3.77893413	    -54.56828867	      3.45051162	      0.08924220	     -6.15060149	      2.00700766	     -0.08551797
      5.54000000	     -3.97875624	     -3.06179595	   -118.37585142	      0.72839578	      1.07273555	      0.59360045	     -5.01600542	     11.67421430	     -6.87366557	     -8.30341607	     11.56618722	    -10.76299194	     19.25767085	     -7.85309979	      3.77988942	    -52.89394167	      4.05625975	     -0.50414472	     -6.14621464	      1.85623575	      0.21370805
      5.55000000	     -3.89254240	     -2.97192194	   -119.45617544	      0.72431505	      1.07265346	      0.59850887	     -5.29343775	     11.52709425	     -5.89944559	     -8.46613753	     11.78602503	    -10.69476954	     19.81875175	     -7.79455100	      3.73722593	    -51.13452183	      4.62250096	     -0.83034442	     -6.10261658	      1.71971427	      0.50603795
      5.56000000	     -3.84450544	     -2.94436136	   -120.50911554	      0.72021560	      1.07264470	      0.60347861	     -5.67004175	     11.37815190	     -4.91569655	     -8.58700333	     11.99291905	    -10.59771579	     20.24086236	     -7.73653849	      3.64010367	    -49.27430284	      5.08213855	     -1.20359539	     -6.12666580	      1.59152833	      0.75024485
      5.57000000	     -3.76844819	     -2.86256168	   -121.53374346	      0.71613645	      1.07246812	      0.60844635	     -5.92769893	     11.22022745	     -4.01566084	     -8.79603134	     12.24862357	    -10.48832567	     20.68986855	     -7.67156943	      3.51172991	    -47.36028533	      5.53728000	     -1.24663464	     -6.07128758	      1.47036315	      0.98633033
      5.58000000	     -3.70648852	     -2.81416374	   -122.53061458	      0.71205557	      1.07229071	      0.61348234	     -6.22361956	     11.05014776	     -3.12487125	     -9.00161388	     12.51392219	    -10.35222886	     21.04480735	     -7.59050557	      3.34040743	    -45.38012477	      5.92565622	     -1.14683770	     -6.04322292	      1.35095292	      1.18668645
      5.59000000	     -3.64221264	     -2.79426146	   -123.49339236	      0.70801615	      1.07208677	      0.61860468	     -6.52740545	     10.85294455	     -2.27166001	     -9.23114400	     12.80762870	    -10.20428656	     21.32152511	     -7.47160636	      3.13659856	    -43.34665221	      6.24762175	     -0.85655986	     -6.02908513	      1.22316978	      1.35753166
      5.60000000	     -3.60475250	     -2.84311447	   -124.40363940	      0.70404808	      1.07193286	      0.62386602	     -6.91911403	     10.63220669	     -1.44907941	     -9.43088631	     13.11112960	    -10.03119932	     21.46686467	     -7.30091936	      2.94211425	    -41.26816984	      6.51781301	     -0.23492857	     -6.08417599	      1.09284916	      1.47868315
      5.61000000	     -3.52000094	     -2.86312585	   -125.27379370	      0.70016727	      1.07161795	      0.62920531	     -7.21315084	     10.37903439	     -0.68841460	     -9.69782628	     13.46999490	     -9.91914692	     21.62489531	     -7.07916071	      2.73521466	    -39.16968557	      6.69134848	      0.45785301	     -6.07276145	      0.94652783	      1.57770093
      5.62000000	     -3.41751412	     -2.90691580	   -126.09327612	      0.69637561	      1.07123917	      0.63467197	     -7.50217714	     10.09051290	      0.02145048	     -9.97953647	     13.85778933	     -9.83177275	     21.72879304	     -6.80462248	      2.51087078	    -37.05222185	      6.78714181	      1.29369180	     -6.06155567	      0.78666214	      1.61179310
      5.63000000	     -3.30167611	     -2.95809215	   -126.86689277	      0.69265538	      1.07077543	      0.64023469	     -7.76834933	      9.78266976	      0.67734438	    -10.28492709	     14.27992717	     -9.76389596	     21.79135566	     -6.48974374	      2.29715182	    -34.92084645	      6.79020100	      2.20428812	     -6.04078103	      0.61807924	      1.63107717
      5.64000000	     -3.16440595	     -3.01361282	   -127.58571518	      0.68900221	      1.07021592	      0.64590736	     -8.01422318	      9.45274399	      1.28122747	    -10.59499259	     14.72285704	     -9.70257743	     21.82643716	     -6.13552015	      2.08156192	    -32.78581123	      6.72101290	      3.16347424	     -6.00071170	      0.43981881	      1.59199604
